PathFileType	4	(X/Y/Z)	C:\Users\°ÂÌØÂü\Desktop\20210112\bx_y_0_902-Unnamed.trc
DataRate	CameraRate	NumFrames	NumMarkers	Units	OrigDataRate	OrigDataStartFrame	OrigNumFrames
50.00	50.00	       4	0	mm	50.00	292	       466
Frame#	Time	
		

292	5.820	-163.19948	96.10339	1419.08862	-830.38684	-61.26023	707.79987	-836.76752	248.47447	623.42517	-786.52136	72.38184	566.14301				-740.98645	213.54469	805.61017	-823.03015	244.76616	565.39691	-757.82367	205.97699	534.59888	-845.01440	256.11411	487.08774	-664.41943	-69.31596	160.01447				-605.24817	20.42549	167.45752	-677.62195	53.47012	162.83765	-719.65033	156.71490	220.44749	-799.52588	175.29823	181.61000	-776.40527	225.67264	201.35567	-596.34338	223.03033	173.51283	-882.88800	295.70801	144.54991	-562.36462	258.84506	166.36299	-667.35431	300.80072	158.19608	-629.78284	308.20959	161.94783	-527.61902	303.83438	146.35979	-389.87982	-83.08571	1204.36206	-920.32770	87.49177	1095.15808	-773.82074	-10.51015	202.55991	-797.99792	50.93338	173.23959	-837.37195	-43.95448	472.93481	-560.25494	-34.80262	162.83414	-876.00482	-78.69706	141.35422				-811.20453	-32.03638	559.56415	-676.99463	175.55304	161.42592	-622.27899	-79.72555	156.21315	-810.62946	276.98380	868.58716	-837.82715	279.59583	736.32312	-517.96063	-72.50333	142.66840	-737.03510	-8.50954	801.41125	-727.48444	71.67982	220.83580	-751.27399	12.14205	524.25720	-385.56497	272.09796	1250.73071							-780.52545	143.56760	566.40918	-810.41730	-35.55603	608.34033	-816.51038	-74.05704	852.59509	
293	5.840	-168.34537	95.78211	1431.98730	-828.35583	-60.56864	708.25653	-835.77246	248.01332	623.57178	-785.41302	72.77375	566.73425				-739.27625	213.04282	805.97070	-821.93140	244.23337	565.86206	-756.90802	205.85660	534.66931	-843.90729	256.01685	487.20267	-664.29242	-69.21873	160.18808				-605.07990	20.40337	167.57716	-677.67700	52.72288	162.21574	-720.02087	156.53488	220.35396	-799.36591	175.18045	181.50415	-776.24609	225.65146	201.33861	-596.34338	223.03033	173.51283	-882.94775	295.69690	144.50674	-562.30365	258.67548	166.14212	-667.30731	300.74118	158.25421	-629.80865	307.99173	161.88368	-528.09155	303.98560	146.33647	-391.16095	-83.20856	1212.79822	-919.78119	87.75935	1094.69153	-773.82074	-10.51015	202.55991	-797.76532	50.96580	173.03871	-836.11017	-43.93490	473.07028	-560.23608	-34.98970	162.84650	-875.85034	-78.68372	141.27127				-809.82605	-32.06920	559.66370	-677.05841	175.52007	161.32066	-622.05188	-79.78972	156.26036	-808.45184	277.08783	869.19165	-835.92450	279.38437	736.57837	-518.07581	-72.69363	142.94855	-735.33502	-8.84420	802.10773	-727.48444	71.67982	220.83580	-750.48218	12.16925	524.16724	-387.67065	271.60931	1258.43188							-779.35266	143.11024	566.48999	-809.09772	-35.51412	608.62469	-814.24109	-73.83652	853.13293	
294	5.860	-174.07822	95.45733	1444.89063	-827.32294	-60.51863	708.52606	-834.37372	248.12434	624.46252	-784.00049	72.31329	566.35022				-737.18304	213.19870	806.38678	-820.79419	244.17267	565.87799	-755.29065	205.81482	534.91479	-842.90540	255.88853	487.95163	-664.34192	-69.25582	160.15585				-605.22272	20.35745	167.25636	-677.60419	53.11223	162.35158	-719.59778	156.45058	220.20119	-799.36591	175.18045	181.50415	-776.32422	225.82800	201.41464	-596.29376	222.96532	173.40855	-882.96246	295.79965	144.49303	-562.40198	258.80731	166.23752	-667.42297	300.69513	158.18016	-629.79559	308.14377	162.04323	-528.02612	303.94760	146.38365	-392.83109	-82.88948	1220.91650	-919.04651	87.95042	1094.08545	-773.74103	-10.45261	202.69092	-797.57397	50.84574	172.98384	-835.65411	-43.92056	473.57547	-560.33722	-34.80428	162.77435	-875.85522	-78.73365	141.22168				-808.73700	-32.34314	560.07996	-677.18878	175.73302	160.83688	-622.05188	-79.78972	156.26036	-806.08655	276.99747	869.63287	-834.04584	279.35617	737.13245	-518.01678	-72.41117	142.65385	-733.25012	-8.28260	802.24286	-727.34192	71.75193	220.98564	-749.54700	12.19136	523.94147	-390.42288	271.63495	1266.71851							-778.38953	143.15448	566.77454	-807.65131	-35.53747	608.91602	-812.30450	-73.96194	853.48413	
295	5.880	-180.09543	95.21741	1457.54065	-824.61163	-60.35689	709.38599	-833.36334	247.53316	624.61169	-783.14209	72.27260	566.50488	-739.82489	-10.27210	1003.44635	-735.53308	212.78319	806.73102	-819.76611	243.86546	566.32397	-754.74512	205.67210	534.87146	-842.50415	255.58522	487.89011	-664.24774	-69.22900	160.31532				-605.09290	20.33556	167.24663	-677.56586	53.30614	162.17587	-719.40381	156.40964	220.21069	-799.36591	175.18045	181.50415	-776.15582	225.52481	201.40842	-596.38696	222.99519	173.29654	-882.77490	295.76483	144.28337	-562.10260	258.62509	166.29108	-667.29834	300.66608	158.35965	-629.79559	308.14377	162.04323	-528.05646	304.02863	146.09174	-394.70688	-83.54052	1229.45361	-918.61035	87.91341	1093.37683	-773.33398	-10.63553	202.96696	-797.91766	50.93378	173.37497	-834.57684	-44.40633	474.13519	-560.19354	-35.14079	162.84879	-875.82843	-78.69613	141.22806				-807.76367	-31.54764	560.08795	-676.95477	175.47557	161.22479	-622.13770	-79.75803	156.19965	-803.92365	276.38528	869.61389	-832.14563	278.51514	737.24304	-518.07434	-72.39948	142.80666	-731.68134	-8.45748	802.61871	-727.13660	71.78210	220.92963	-748.17682	11.91647	524.41382	-392.76196	271.43829	1275.18542							-777.31744	142.92358	566.92712	-806.38208	-35.49094	608.99646	-810.44470	-73.75525	853.44385	
